<?xml version="1.0" encoding="utf-8" ?><svg xmlns="http://www.w3.org/2000/svg" xmlns:xlink="http://www.w3.org/1999/xlink" width="707" height="353" viewBox="0 0 707 353"><defs><linearGradient id="gradient_0" gradientUnits="userSpaceOnUse" x1="202.08934" y1="236.33879" x2="141.21231" y2="242.4688"><stop offset="0" stop-color="#45AB42"/><stop offset="1" stop-color="#79E47A"/></linearGradient></defs><path fill="url(#gradient_0)" d="M95.6384 173.023C100.537 174.123 108.143 177.625 112.873 179.578C115.396 180.619 117.61 182.138 120.493 183.15C128.762 185.978 137.047 188.757 145.349 191.486C147.578 192.199 155.43 194.352 156.97 195.219C164.634 197.747 172.003 201.097 178.948 205.208C181.62 206.81 186.839 210.421 189.246 211.611C194.468 212.29 202.906 224.129 205.807 228.468C223.213 252.257 220.043 286.563 195.504 304.81C194.199 305.781 192.77 306.805 191.302 307.51C178.364 315.2 161.3 317.402 148.107 308.962C144.275 306.842 141.842 304.675 139.104 301.303C140.741 299.997 146.219 298.78 148.849 296.945C151.639 294.998 151.832 293.595 154.625 291.987C155.415 289.842 158.169 289.451 160.172 287.483L160.155 286.95C158.003 285.819 156.56 287.595 153.541 286.035C150.31 284.365 147.853 286.635 145.167 287.906L144.961 288.001C144.043 288.756 143.144 289.534 142.264 290.334C141.927 287.56 146.792 287.406 145.828 284.37C143.314 282.174 133.866 285.257 133.172 285.039C132.869 285.386 132.779 285.423 132.411 285.713C133.254 284.578 134.07 283.762 134.131 282.315C135.012 280.659 137.227 278.777 138.354 277.097C149.29 260.805 153.959 242.647 138.394 227.284C139.079 226.862 138.86 227.018 139.27 226.205C139.122 220.39 101.353 184.371 96.8257 176.236C96.2404 175.184 96.2921 175.131 96.6396 174.019L95.6384 173.023Z"/><path fill="#077001" d="M205.807 228.468C223.213 252.257 220.043 286.563 195.504 304.81C194.199 305.781 192.77 306.805 191.302 307.51C178.364 315.2 161.3 317.402 148.107 308.962C144.275 306.842 141.842 304.675 139.104 301.303C140.741 299.997 146.219 298.78 148.849 296.945C151.639 294.998 151.832 293.595 154.625 291.987C166.366 285.14 184.365 270.79 192.062 259.511C193.555 258.784 201.557 246.436 201.717 244.318C202.948 242.236 205.485 241.024 205.64 237.387C205.767 234.419 205.737 231.441 205.807 228.468Z"/><path fill="#35A503" d="M148.107 308.962L148.789 308.341C149.742 308.694 150.011 308.968 150.773 309.593C152.329 309.077 153.93 305.818 155.444 304.842C164.699 298.878 181.38 297.7 186.406 309.395C187.673 309.272 189.516 306.986 191.109 307.034L191.302 307.51C178.364 315.2 161.3 317.402 148.107 308.962Z"/><defs><linearGradient id="gradient_1" gradientUnits="userSpaceOnUse" x1="143.74071" y1="211.39874" x2="100.16493" y2="248.12497"><stop offset="0" stop-color="#011F94"/><stop offset="1" stop-color="#0059F7"/></linearGradient></defs><path fill="url(#gradient_1)" d="M95.6384 173.023C100.537 174.123 108.143 177.625 112.873 179.578C115.396 180.619 117.61 182.138 120.493 183.15C128.762 185.978 137.047 188.757 145.349 191.486C147.578 192.199 155.43 194.352 156.97 195.219C155.743 195.725 154.436 194.986 154.295 195.082C149.695 198.216 143.158 202.995 137.259 201.359C137.569 202.002 137.916 202.174 138.502 202.62C138.375 203.144 138.523 202.952 138.172 203.278C145.052 211.1 152.823 219.131 156.851 228.892C157.91 231.457 158.309 234.364 159.082 237.013C164.722 256.336 157.847 273.348 144.961 288.001C144.043 288.756 143.144 289.534 142.264 290.334C141.927 287.56 146.792 287.406 145.828 284.37C143.314 282.174 133.866 285.257 133.172 285.039C132.869 285.386 132.779 285.423 132.411 285.713C133.254 284.578 134.07 283.762 134.131 282.315C135.012 280.659 137.227 278.777 138.354 277.097C149.29 260.805 153.959 242.647 138.394 227.284C139.079 226.862 138.86 227.018 139.27 226.205C139.122 220.39 101.353 184.371 96.8257 176.236C96.2404 175.184 96.2921 175.131 96.6396 174.019L95.6384 173.023Z"/><path fill="#94E682" d="M95.6384 173.023C100.537 174.123 108.143 177.625 112.873 179.578C115.396 180.619 117.61 182.138 120.493 183.15C128.762 185.978 137.047 188.757 145.349 191.486C147.578 192.199 155.43 194.352 156.97 195.219C155.743 195.725 154.436 194.986 154.295 195.082C149.695 198.216 143.158 202.995 137.259 201.359C137.569 202.002 137.916 202.174 138.502 202.62C138.375 203.144 138.523 202.952 138.172 203.278C137.457 202.915 132.671 198.835 131.829 198.062C120.754 187.894 109.465 181.658 96.6396 174.019L95.6384 173.023Z"/><path fill="#94E682" d="M189.246 211.611C194.468 212.29 202.906 224.129 205.807 228.468C205.737 231.441 205.767 234.419 205.64 237.387C205.485 241.024 202.948 242.236 201.717 244.318C201.091 242.095 203.464 236.243 202.315 231.096C201.992 224.306 195.385 218.365 190.989 213.913C190.197 213.111 189.751 212.639 189.246 211.611Z"/><path fill="#4EB339" d="M202.315 231.096C203.464 236.243 201.091 242.095 201.717 244.318C201.557 246.436 193.555 258.784 192.062 259.511L191.664 259.405C191.617 259.287 191.569 259.169 191.522 259.051C193.966 256.081 200.202 247.86 200.626 244.265L200.214 244.208L200.559 244.503L200.112 244.248L200.531 244.555L199.918 244.356C195.928 246.566 192.244 254.115 191.04 254.982C189.855 251.588 196.271 247.243 196.351 245.139C196.524 240.614 196.092 238.806 200.474 235.783C202.48 234.399 202.288 233.428 202.315 231.096Z"/><path fill="#FDB506" d="M62.4183 198.802C71.0082 202.141 78.0135 207.415 87.3881 210.006C90.2857 210.807 109.664 216.255 109.976 216.618C109.154 217.424 106.453 218.714 105.397 218.996C100.126 221.751 94.0079 225.554 89.4861 229.468C82.7788 235.948 76.2435 242.118 76.0528 252.104C75.8296 263.799 87.9255 271.209 96.965 275.979C98.3396 276.704 99.9913 277.138 101.236 277.888C108.004 280.542 115.135 282.154 122.387 282.668C124.822 282.782 127.755 282.994 130.154 282.981C128.282 285.098 126.091 287.581 123.785 289.253C108.327 301.983 91.5516 311.563 72.0059 316.469C67.7694 317.533 64.5257 318.482 60.1309 318.949C59.9655 314.578 59.7198 308.132 60.0462 303.804C59.7189 300.135 59.5037 285.582 60.3937 282.2C59.7297 281.68 58.8522 281.229 58.2725 280.736C36.5479 262.24 40.2177 227.695 56.0344 206.657C57.0769 204.811 60.8533 200.275 62.4183 198.802ZM87.4894 292.245C93.0025 292.483 97.1544 292.349 102.619 292.072C108.522 291.137 118.144 290.037 123.035 287.162L123.002 286.852L121.908 287.076C106.855 292.263 85.6145 293.088 70.7886 287.49C67.6345 286.299 64.145 283.922 60.7946 282.519C64.3233 288.271 81.2015 291.013 87.4894 292.245ZM67.9182 267.974L61.9536 261.941C59.2067 259.386 53.9754 255.014 52.6693 251.449C51.2281 250.963 51.0135 250.601 49.8452 250.977C53.674 258.691 60.4382 263.984 67.9182 267.974Z"/><path fill="#FEA339" fill-opacity="0.062745102" d="M60.7946 282.519C64.145 283.922 67.6345 286.299 70.7886 287.49C85.6145 293.088 106.855 292.263 121.908 287.076L123.002 286.852L123.035 287.162C118.144 290.037 108.522 291.137 102.619 292.072C97.1544 292.349 93.0025 292.483 87.4894 292.245C81.2015 291.013 64.3233 288.271 60.7946 282.519Z"/><path fill="#E23601" d="M62.4183 198.802C71.0082 202.141 78.0135 207.415 87.3881 210.006C90.2857 210.807 109.664 216.255 109.976 216.618C109.154 217.424 106.453 218.714 105.397 218.996C100.126 221.751 94.0079 225.554 89.4861 229.468C82.7788 235.948 76.2435 242.118 76.0528 252.104C75.8296 263.799 87.9255 271.209 96.965 275.979C98.3396 276.704 99.9913 277.138 101.236 277.888C95.6748 277.763 91.5662 275.8 86.3457 274.155L85.8552 274.747C83.5736 275.889 69.5113 270.51 67.9182 267.974L61.9536 261.941C59.2067 259.386 53.9754 255.014 52.6693 251.449C51.2281 250.963 51.0135 250.601 49.8452 250.977C48.3495 249.906 46.4537 243.02 47.4983 241.267C47.5261 240.339 46.9749 238.931 46.947 237.785C46.6724 226.523 52.5142 217.571 56.8979 207.8C57.0551 207.45 56.2659 206.873 56.0344 206.657C57.0769 204.811 60.8533 200.275 62.4183 198.802Z"/><path fill="#F66600" d="M89.4861 229.468C85.3528 226.541 75.0467 239.187 72.7386 241.714C73.5581 240.562 75.1935 238.676 75.7098 237.445C76.8902 234.631 87.9597 226.449 90.2071 226.989L89.8885 228.097C91.1318 227.137 93.514 225.119 94.85 224.576C94.243 224.136 91.6101 224.387 91.499 224.274C86.1656 218.878 77.0448 218.098 70.4127 214.821L70.3211 214.469C73.426 215.11 75.6611 216.266 78.735 217.293C83.8499 219.003 90.3429 220.35 95.7087 220.875C100.007 221.295 99.8806 218.673 105.397 218.996C100.126 221.751 94.0079 225.554 89.4861 229.468Z"/><path fill="#FED769" d="M61.9536 261.941C62.1697 261.904 62.4268 261.861 62.725 261.81C65.2003 263.373 68.8298 265.664 71.2967 267.024C76.2393 269.75 81.2345 271.928 86.3457 274.155L85.8552 274.747C83.5736 275.889 69.5113 270.51 67.9182 267.974L61.9536 261.941Z"/><path fill="#FED769" d="M47.4983 241.267C48.1358 242.909 52.7491 250.181 52.6693 251.449C51.2281 250.963 51.0135 250.601 49.8452 250.977C48.3495 249.906 46.4537 243.02 47.4983 241.267Z"/><path fill="#F66600" d="M60.3937 282.2L60.7946 282.519C64.3233 288.271 81.2015 291.013 87.4894 292.245C93.0025 292.483 97.1544 292.349 102.619 292.072L102.787 292.56C105.389 293.52 120.846 288.635 123.222 288.525L123.785 289.253C108.327 301.983 91.5516 311.563 72.0059 316.469C67.7694 317.533 64.5257 318.482 60.1309 318.949C59.9655 314.578 59.7198 308.132 60.0462 303.804C59.7189 300.135 59.5037 285.582 60.3937 282.2Z"/><path fill="#E23601" d="M60.3937 282.2L60.7946 282.519C64.3233 288.271 81.2015 291.013 87.4894 292.245C81.7694 292.771 78.4543 290.707 72.9958 290.265C72.964 290.263 72.1446 291.041 72.0519 291.195C69.176 295.968 65.2599 295.768 60.4016 297.084C60.4633 299.064 60.7726 302.096 60.0462 303.804C59.7189 300.135 59.5037 285.582 60.3937 282.2Z"/><defs><linearGradient id="gradient_2" gradientUnits="userSpaceOnUse" x1="658.23413" y1="201.36687" x2="655.18945" y2="123.47698"><stop offset="0" stop-color="#010D58"/><stop offset="1" stop-color="#01359F"/></linearGradient></defs><path fill="url(#gradient_2)" d="M625.514 124.138C635.274 123.713 659.369 122.945 667.404 127.139C672.357 128.864 678.452 133.864 681.67 138.006C696.403 156.967 690.915 188.739 668.046 198.72C654.631 204.575 639.666 202.255 625.552 202.545L625.499 160.132C625.423 149.869 624.96 139.067 625.556 128.832L625.514 124.138ZM642.101 188.36C649.545 187.96 655.569 188.468 662.75 184.752C667.342 181.552 671.232 177.263 672.654 171.775C673.062 169.865 673.972 167.29 674.082 165.456C674.883 152.11 668.102 141.286 654.575 138.684C649.862 137.778 646.2 138.026 641.481 138.112C642.183 150.028 641.569 162.798 641.81 174.787C641.897 179.135 641.724 184.061 642.101 188.36Z"/><path fill="#0451D9" d="M625.514 124.138C635.274 123.713 659.369 122.945 667.404 127.139C658.328 128.204 648.78 123.814 639.454 124.73C635.458 125.122 630.969 124.458 626.806 125.053C625.874 126.087 626.526 127.214 625.556 128.832L625.514 124.138Z"/><path fill="#0451D9" d="M672.654 171.775L673.551 172.318L674.308 171.85L675.065 172.123C674.966 175.511 666.471 189.15 662.75 184.752C667.342 181.552 671.232 177.263 672.654 171.775Z"/><defs><linearGradient id="gradient_3" gradientUnits="userSpaceOnUse" x1="248.69412" y1="77.236488" x2="238.7464" y2="53.237499"><stop offset="0" stop-color="#CF0E01"/><stop offset="1" stop-color="#EE4E01"/></linearGradient></defs><path fill="url(#gradient_3)" d="M236.594 34.4347C240.744 33.7485 243.88 34.0184 247.981 34.9657C254.003 37.4928 256.211 39.3053 259.634 45.181C260.262 46.2593 261.194 48.5042 261.738 49.3835C264.695 61.6779 260.481 74.5712 246.646 78.783C241.71 80.2856 233.495 79.35 229.389 76.6006C226.244 74.5189 222.437 70.4388 221.378 66.9103L220.946 66.5113C183.813 77.1623 147.079 99.7594 121.221 128.476C114.857 135.543 108.866 143.032 104.245 151.381C103.407 152.893 96.5933 166.398 96.4959 166.499L95.884 166.42C95.395 165.235 98.7791 151.936 99.5649 150.204C100.528 150.478 100.113 150.483 101.172 150.049C103.333 146.829 104.844 140.378 107.03 136.866C108.428 134.621 107.09 134.505 108.17 132.609L108.762 133.17C109.336 132.957 113.268 127.131 114.209 125.959C114.072 125.311 113.49 124.704 113.063 124.162C112.948 122.776 113.807 122.052 114.728 120.689C116.624 119.39 121.077 111.829 122.952 109.466C131.524 98.6589 140.666 89.3517 151.923 81.3245C154.772 79.2924 158.247 76.5414 161.503 75.3296C162.826 73.6199 178.112 67.4941 180.891 66.5414C180.734 65.956 180.681 66.0984 179.966 65.6636C181.907 64.5032 181.572 65.5594 182.671 63.66C187.275 61.2607 214.083 57.955 219.107 59.083C219.108 58.9303 219.111 58.7776 219.115 58.6249C219.28 51.6609 220.267 45.421 225.521 40.3952C228.074 36.9036 232.518 35.322 236.594 34.4347Z"/><defs><linearGradient id="gradient_4" gradientUnits="userSpaceOnUse" x1="242.33829" y1="62.781879" x2="237.43652" y2="39.639999"><stop offset="0" stop-color="#FC5E02"/><stop offset="1" stop-color="#FF9E0C"/></linearGradient></defs><path fill="url(#gradient_4)" d="M236.594 34.4347C240.744 33.7485 243.88 34.0184 247.981 34.9657C254.003 37.4928 256.211 39.3053 259.634 45.181C260.262 46.2593 261.194 48.5042 261.738 49.3835C261.581 50.8238 261.567 51.977 260.796 53.2124C260.625 53.3067 260.072 53.6295 259.925 53.6689C258.769 54.2591 258.337 54.4399 257.351 55.3035L257.16 55.2729C253.056 57.3712 249.927 61.266 244.749 63.1456C240.847 64.5618 235.449 63.1409 233.654 64.2393C231.366 64.2301 228.458 62.8309 226.439 61.8278C225.786 60.862 225.134 59.4709 224.208 59.227L224.012 58.4416C224.19 59.2685 224.205 59.2989 223.958 60.0883C223.209 60.1653 223.021 59.996 222.308 59.6592C222.063 58.5304 221.83 57.7295 221.487 56.6283L221.335 56.8773C221.297 58.1145 221.204 58.6153 221.688 59.7593L221.235 59.7298C220.555 59.5798 219.779 59.3022 219.107 59.083C219.108 58.9303 219.111 58.7776 219.115 58.6249C219.28 51.6609 220.267 45.421 225.521 40.3952C228.074 36.9036 232.518 35.322 236.594 34.4347Z"/><path fill="#FED769" d="M236.594 34.4347C240.744 33.7485 243.88 34.0184 247.981 34.9657C247.457 36.9584 246.687 39.0798 248.257 40.8392C252.812 54.1958 229.775 54.8204 226.01 48.9853C226.054 48.4884 226.068 48.1706 226.172 47.6763C226.569 47.1089 227.3 45.4886 227.64 44.7828C226.962 42.7946 225.673 44.2093 225.521 40.3952C228.074 36.9036 232.518 35.322 236.594 34.4347Z"/><path fill="#FAFDF8" d="M237.136 37.165C238.552 37.4419 240.134 37.5671 241.086 38.6001C243.513 44.02 229.84 47.3628 227.99 44.6951C228.479 43.8167 229.391 42.6128 229.998 41.7627C232.532 39.631 233.971 38.3719 237.136 37.165Z"/><path fill="#FDB506" d="M225.521 40.3952C228.074 36.9036 232.518 35.322 236.594 34.4347C233.28 36.937 229.992 37.5403 229.998 41.7627C229.391 42.6128 228.479 43.8167 227.99 44.6951L227.64 44.7828C226.962 42.7946 225.673 44.2093 225.521 40.3952Z"/><path fill="#FF9720" d="M248.257 40.8392C251.771 41.7227 250.492 41.8497 251.824 44.7251C253.02 47.3071 251.262 48.064 251.616 49.8539L252.119 48.8513C254.333 51.3014 246.97 56.7554 244.605 57.336L244.426 57.2165C241.855 55.5288 226.959 59.5179 224.785 51.0724C224.447 49.7606 224.835 48.2343 226.172 47.6763C226.068 48.1706 226.054 48.4884 226.01 48.9853C229.775 54.8204 252.812 54.1958 248.257 40.8392Z"/><path fill="#E23601" d="M124.602 116.037C124.771 115.977 124.785 115.962 124.968 115.934C129.454 115.229 132.066 111.121 135.226 108.172C155.743 89.0213 179.81 72.6167 207.731 66.8466C210.469 66.2809 220.666 63.2643 222.282 64.9976C222.255 65.9508 221.973 66.1552 221.378 66.9103L220.946 66.5113C183.813 77.1623 147.079 99.7594 121.221 128.476C114.857 135.543 108.866 143.032 104.245 151.381C103.407 152.893 96.5933 166.398 96.4959 166.499L95.884 166.42C95.395 165.235 98.7791 151.936 99.5649 150.204C100.528 150.478 100.113 150.483 101.172 150.049C103.333 146.829 104.844 140.378 107.03 136.866C108.428 134.621 107.09 134.505 108.17 132.609L108.762 133.17C109.336 132.957 113.268 127.131 114.209 125.959C116.692 125.188 122.499 118.073 124.381 116.25L124.602 116.037Z"/><path fill="#FE8015" d="M182.671 63.66C187.275 61.2607 214.083 57.955 219.107 59.083C219.779 59.3022 220.555 59.5798 221.235 59.7298L221.688 59.7593C221.759 64.9502 205.481 64.0717 201.851 64.6864C179.609 68.4531 158.553 83.5253 141.565 98.2376C138.837 101.189 135.867 103.885 133.021 106.739C130.024 109.744 127.418 112.945 124.602 116.037L124.381 116.25C122.499 118.073 116.692 125.188 114.209 125.959C114.072 125.311 113.49 124.704 113.063 124.162C112.948 122.776 113.807 122.052 114.728 120.689C116.624 119.39 121.077 111.829 122.952 109.466C131.524 98.6589 140.666 89.3517 151.923 81.3245C154.772 79.2924 158.247 76.5414 161.503 75.3296C162.826 73.6199 178.112 67.4941 180.891 66.5414C180.734 65.956 180.681 66.0984 179.966 65.6636C181.907 64.5032 181.572 65.5594 182.671 63.66Z"/><path fill="#FEA339" d="M155.096 79.7788C154.691 80.5075 154.189 81.3571 153.84 82.0994C155.007 81.4497 156.01 80.3272 156.593 80.0369C159.415 78.6326 162.592 77.0584 165.144 75.1991L165.53 75.4333C164.531 78.2058 152.471 85.44 149.753 87.7034C146.803 90.159 128.298 104.726 129.464 107.459L129.101 107.042L129.04 107.588C131.328 107.707 139.967 98.3462 141.565 98.2376C138.837 101.189 135.867 103.885 133.021 106.739C130.024 109.744 127.418 112.945 124.602 116.037L124.381 116.25C122.499 118.073 116.692 125.188 114.209 125.959C114.072 125.311 113.49 124.704 113.063 124.162C112.948 122.776 113.807 122.052 114.728 120.689C116.624 119.39 121.077 111.829 122.952 109.466C131.524 98.6589 140.666 89.3517 151.923 81.3245C154.772 79.2924 158.247 76.5414 161.503 75.3296L161.501 75.9535C159.413 77.2105 157.208 78.5921 155.096 79.7788Z"/><path fill="#FEA339" d="M182.671 63.66C187.275 61.2607 214.083 57.955 219.107 59.083C219.779 59.3022 220.555 59.5798 221.235 59.7298C220.854 60.1299 220.445 60.4599 219.876 60.5273C207.011 62.0516 194.019 63.4756 181.456 66.7299L180.891 66.5414C180.734 65.956 180.681 66.0984 179.966 65.6636C181.907 64.5032 181.572 65.5594 182.671 63.66Z"/><path fill="#F66600" d="M233.654 64.2393C235.449 63.1409 240.847 64.5618 244.749 63.1456C249.927 61.266 253.056 57.3712 257.16 55.2729L257.351 55.3035C258.337 54.4399 258.769 54.2591 259.925 53.6689C259.138 54.9163 259.108 57.4848 259.227 57.3614C252.016 64.8221 240.829 69.0155 230.621 65.6406C230.475 65.5924 230.376 65.4546 230.287 65.3515C232.307 65.0504 234.412 65.7813 235.675 65.277L235.513 64.7063L235.173 64.6567C234.635 64.5754 234.139 64.4832 233.654 64.2393Z"/><defs><linearGradient id="gradient_5" gradientUnits="userSpaceOnUse" x1="528.86285" y1="205.26579" x2="517.10071" y2="120.83318"><stop offset="0" stop-color="#02105E"/><stop offset="1" stop-color="#003199"/></linearGradient></defs><path fill="url(#gradient_5)" d="M532.549 149.846C537.354 141.697 543.363 132.89 548.722 124.984C549.566 123.739 552.469 123.987 553.933 124.018C555.597 124.006 557.377 124.022 559.031 123.976C559.869 129.75 559.33 142.178 559.394 148.664C559.532 159.902 559.579 171.141 559.535 182.38C559.529 188.701 559.663 195.911 559.315 202.156C555.31 202.823 548.608 202.489 544.23 202.56L544.114 171.827C544.116 168.854 543.979 159.327 544.444 156.807C543.407 157.227 542.433 159.369 541.823 160.479L528.709 180.978C527.057 183.507 524.95 187.31 522.97 189.285C520.254 184.589 516.25 178.789 513.238 174.199C511.238 171.15 504.37 159.759 502.241 157.567C501.459 158.714 501.742 197.227 501.551 202.548C496.962 202.816 491.445 202.559 486.759 202.508C487.448 196.773 487.154 184.657 487.165 178.371L486.871 124.303C500.934 123.981 497.18 123.703 505.163 135.447C511.659 145.001 517.58 154.667 523.505 164.589C524.949 160.944 530.129 153.382 532.549 149.846Z"/><defs><linearGradient id="gradient_6" gradientUnits="userSpaceOnUse" x1="545.71124" y1="139.19655" x2="541.4726" y2="136.47694"><stop offset="0" stop-color="#0D3CB2"/><stop offset="1" stop-color="#2855C9"/></linearGradient></defs><path fill="url(#gradient_6)" d="M532.549 149.846C537.354 141.697 543.363 132.89 548.722 124.984C549.566 123.739 552.469 123.987 553.933 124.018C555.597 124.006 557.377 124.022 559.031 123.976L558.938 126.434L558.36 126.861C554.778 129.321 548.898 129.282 545.78 133.821C541.988 139.345 539.137 144.828 535.032 150.192L533.174 151.658L532.705 151.37L532.549 149.846Z"/><path fill="#0451D9" d="M553.933 124.018C555.597 124.006 557.377 124.022 559.031 123.976L558.938 126.434L558.36 126.861C556.839 126.786 555.404 126.944 554.378 125.986C554.662 125.409 554.818 125.095 555.024 124.488L553.933 124.018Z"/><path fill="#0451D9" d="M532.549 149.846L532.705 151.37L533.174 151.658L535.032 150.192C533.252 153.017 525.566 166.287 523.369 166.939C522.792 166.141 523.011 166.119 523.133 164.923L523.505 164.589C524.949 160.944 530.129 153.382 532.549 149.846Z"/><path fill="#001B77" d="M541.823 160.479C542.076 158.858 541.645 158.137 542.636 156.449C543.276 155.358 544.221 153.279 545.503 152.866C545.891 154.119 545.017 155.479 544.444 156.807C543.407 157.227 542.433 159.369 541.823 160.479Z"/><path fill="#022192" d="M106.392 86.7752C108.352 87.1441 110.047 87.1992 111.905 87.5453C115.144 88.1488 118.368 89.337 121.532 90.2266L122.73 90.577L122.886 91.1193C122.349 91.8157 121.367 92.6976 120.632 93.1538C115.049 96.6155 111.482 103.094 107.007 107.287C95.068 124.319 81.8516 153.181 95.8916 172.551C92.6603 170.446 88.8835 169.066 85.2715 167.53C71.7292 161.773 56.0009 157.402 47.8086 144.068C43.9863 137.847 43.9578 131.018 45.2046 124.004C46.3002 117.84 56.2517 105.824 61.3725 102.912C65.4198 99.0484 75.7154 93.7483 81.0779 91.772C81.6967 91.6888 83.5351 91.0172 84.2327 90.7731C87.5278 89.6199 90.6095 89.0458 94.0504 88.5516C94.8638 88.7818 105 88.14 105.866 87.8741L106.392 86.7752Z"/><defs><linearGradient id="gradient_7" gradientUnits="userSpaceOnUse" x1="85.971115" y1="136.53322" x2="90.101295" y2="87.424881"><stop offset="0" stop-color="#013CCE"/><stop offset="1" stop-color="#0167FF"/></linearGradient></defs><path fill="url(#gradient_7)" d="M106.392 86.7752C108.352 87.1441 110.047 87.1992 111.905 87.5453C115.144 88.1488 118.368 89.337 121.532 90.2266C119.973 91.8234 118.26 91.7207 116.476 92.7402C112.617 94.9451 106.854 99.6206 104.128 103.073C96.7819 110.191 90.3911 124.175 87.1538 133.816C85.3558 135.321 85.4604 136.708 84.5901 137.248C84.1696 136.254 76.3522 135.769 74.7839 135.463C73.1166 135.144 71.4917 134.633 69.9416 133.941C57.248 128.163 56.0308 114.274 61.3725 102.912C65.4198 99.0484 75.7154 93.7483 81.0779 91.772C81.6967 91.6888 83.5351 91.0172 84.2327 90.7731C87.5278 89.6199 90.6095 89.0458 94.0504 88.5516C94.8638 88.7818 105 88.14 105.866 87.8741L106.392 86.7752Z"/><path fill="#001B77" d="M121.532 90.2266L122.73 90.577L122.886 91.1193C122.349 91.8157 121.367 92.6976 120.632 93.1538C115.049 96.6155 111.482 103.094 107.007 107.287C106.776 104.33 114.889 98.0152 116.686 94.9269L116.375 94.5846C112.529 95.2992 107.776 100.347 104.649 103.182L104.128 103.073C106.854 99.6206 112.617 94.9451 116.476 92.7402C118.26 91.7207 119.973 91.8234 121.532 90.2266Z"/><path fill="#0451D9" d="M87.1538 133.816C86.7663 135.526 86.0881 139.664 85.1731 140.806L84.5497 140.947C83.1636 139.633 83.8632 138.986 84.5901 137.248C85.4604 136.708 85.3558 135.321 87.1538 133.816Z"/><path fill="#0451D9" d="M32.3716 137.497L32.5271 139.833C32.4006 139.958 38.7065 119.007 41.9295 116.893C41.5026 117.93 41.3619 118.271 41.13 119.39L41.4516 119.931L42.5015 119.885L43.0663 119.216L43.2866 119.374C42.1975 121.663 40.5772 123.92 39.5135 125.868C38.2941 128.101 34.2626 137.807 34.639 140.035L34.9083 140.328C35.8285 136.17 39.4527 125.018 42.764 122.134C41.9297 126.052 40.8384 129.806 41.0955 133.786C41.703 143.191 47.0891 149.687 54.6808 154.725C55.7607 155.441 57.7935 156.689 58.7083 157.511C67.8583 161.093 77.0942 165.184 86.3001 168.733C88.7008 169.658 93.7155 172.508 95.6384 173.023L96.6396 174.019C96.2921 175.131 96.2404 175.184 96.8257 176.236C101.353 184.371 139.122 220.39 139.27 226.205C138.86 227.018 139.079 226.862 138.394 227.284C127.018 217.897 113.703 215.805 99.763 212.596C64.0381 204.373 24.4445 180.089 32.3716 137.497Z"/><path fill="#022192" d="M34.9083 140.328C35.8285 136.17 39.4527 125.018 42.764 122.134C41.9297 126.052 40.8384 129.806 41.0955 133.786C41.703 143.191 47.0891 149.687 54.6808 154.725C55.7607 155.441 57.7935 156.689 58.7083 157.511C58.5569 157.519 58.0154 157.54 57.9147 157.492C47.9303 152.799 41.3391 144.225 40.0672 133.143C39.9522 132.141 41.1731 126.803 41.365 125.33C38.058 128.121 34.6692 143.015 35.2674 147.632C39.4516 148.266 40.9429 149.492 42.3923 153.664C43.82 157.774 45.5344 162.046 47.006 166.154C48.2228 169.551 52.7599 175.569 49.5179 178.673C48.3582 179.028 47.3936 178.597 46.2198 178.243L45.836 178.48C47.186 181.216 51.7564 184.186 53.7275 186.537C54.4237 187.367 57.162 190.302 57.4051 190.792L57.0292 190.983C55.2904 190.482 53.645 188.644 52.3681 187.264C44.0928 178.324 36.8389 167.603 34.7149 155.409C34.198 152.441 34.7614 143.703 34.9083 140.328Z"/><defs><linearGradient id="gradient_8" gradientUnits="userSpaceOnUse" x1="324.88086" y1="200.84589" x2="319.8204" y2="123.39326"><stop offset="0" stop-color="#011263"/><stop offset="1" stop-color="#0039A7"/></linearGradient></defs><path fill="url(#gradient_8)" d="M298.746 124.031C298.96 124.022 299.174 124.015 299.388 124.012L315.26 123.91C325.229 123.889 336.135 123.322 343.766 130.783C353.51 140.309 353.895 158.879 344.392 168.672C337.044 176.244 327.249 175.986 317.511 176.021L312.186 175.991C311.905 184.662 312.088 193.834 312.047 202.559C309.254 202.774 297.288 203.555 295.656 201.688C294.196 196.564 296.205 193.479 296.2 188.347L296.095 148.329C296.041 143.555 293.906 129.294 295.893 124.853C296.644 124.07 297.657 124.123 298.746 124.031ZM312.132 163.229C318.158 163.158 322.851 163.669 328.545 161.583C331.506 160.577 333.473 158.694 335.38 156.256C339.053 136.709 326.278 137.58 312.048 137.726C312.033 145.83 311.82 155.225 312.132 163.229Z"/><path fill="#0451D9" d="M335.38 156.256C336.775 159.598 333.133 162.138 330.143 162.304C329.617 162.075 329.05 161.844 328.545 161.583C331.506 160.577 333.473 158.694 335.38 156.256Z"/><defs><linearGradient id="gradient_9" gradientUnits="userSpaceOnUse" x1="257.2724" y1="203.35193" x2="254.35431" y2="122.95779"><stop offset="0" stop-color="#011367"/><stop offset="1" stop-color="#0137A2"/></linearGradient></defs><path fill="url(#gradient_9)" d="M228.536 142.065C228.714 143.277 228.74 143.535 228.477 144.742L228.415 145.015L228.897 145.639C228.909 144.36 228.917 143.767 229.128 142.506L229.378 142.68C229.397 144.387 229.436 145.172 229.71 146.848L230.172 147.007C231.402 145.091 230.547 141.604 231.016 139.116C232.097 133.386 239.884 129.06 245.002 127.491C246.903 126.909 253.694 127.044 255.846 125.523C255.265 124.963 253.537 125.442 252.175 124.7C254.695 124.341 257.251 123.996 259.635 123.067C264.395 121.212 272.804 126.279 276.526 126.071C278.11 126.72 287.26 131.435 285.657 133.564C283.271 136.731 280.034 141.301 277.14 143.973C270.136 139.692 263.578 135.277 254.836 137.544C245.87 139.87 243.214 148.966 252.333 153.703C262.15 158.803 274.662 158.76 282.881 166.682C284.785 168.518 287.476 172.006 288.027 174.531C294.685 204.989 257.351 208.181 237.135 200.441C234.825 199.519 225.729 195.034 224.953 193.403C225.227 192.34 225.175 192.633 226.11 191.794C227.81 189.325 230.974 184.466 233.251 182.869C235.15 181.997 240.054 186.201 242.051 187.039C246.663 188.972 252.128 190.33 257.123 190.806C258.737 190.929 263.685 189.146 265.037 189.155C269.009 187.372 269.35 185.568 271.029 181.621C270.149 180.081 269.221 178.072 268.42 176.453C257.678 169.108 239.297 170.863 231.13 157.521C228.241 152.802 227.228 147.479 228.536 142.065Z"/><path fill="#022192" d="M271.029 181.621C274.832 184.781 270.871 188.774 267.194 189.865C266.506 189.77 265.701 189.412 265.037 189.155C269.009 187.372 269.35 185.568 271.029 181.621Z"/><path fill="#0451D9" d="M226.11 191.794C227.81 189.325 230.974 184.466 233.251 182.869C233.944 183.061 233.7 182.861 234.051 183.425L233.997 183.133L234.157 183.438C232.874 184.116 233.236 183.703 232.722 184.94L232.962 185.191L234.179 184.356C233.843 187.532 229.287 189.763 227.649 191.924C226.645 192.188 227.054 192.223 226.11 191.794Z"/><defs><linearGradient id="gradient_10" gradientUnits="userSpaceOnUse" x1="371.61841" y1="205.28539" x2="393.95334" y2="123.18081"><stop offset="0" stop-color="#011061"/><stop offset="1" stop-color="#0039A7"/></linearGradient></defs><path fill="url(#gradient_10)" d="M368.05 123.978L405.996 123.924L406.4 124.363L406.226 125.383C406.457 129.509 406.359 133.728 406.322 137.866C395.596 137.109 383.354 138.269 372.984 137.67C372.878 143.604 372.838 149.706 373.295 155.626C376.225 155.157 381.053 155.296 384.188 155.287L402.048 155.258C402.063 159.622 402.197 164.665 402.039 168.974C395.306 168.662 388.475 168.911 381.738 168.825C379.313 168.794 375.461 168.962 373.177 168.755C373.033 175.096 372.879 182.36 373.158 188.694C377.359 188.126 383.948 188.278 388.319 188.307C394.721 188.365 401.123 188.366 407.525 188.308C407.558 192.993 407.598 197.963 407.392 202.639C396.913 202.785 386.433 202.831 375.953 202.777C370.497 202.776 362.277 203.003 356.983 202.577C357.438 196.235 357.16 188.978 357.227 182.505C357.415 164.202 356.443 144.697 357.047 126.456C356.923 125.536 356.888 125.394 357.306 124.575C358.973 123.367 365.645 123.935 368.05 123.978Z"/><path fill="#0451D9" d="M368.05 123.978L405.996 123.924L406.4 124.363L406.226 125.383C405.911 126.296 405.88 127.006 405.778 127.958C404.986 126.047 404.366 125.865 402.197 125.711C391.514 124.952 380.878 125.475 370.176 124.943C369.194 124.806 368.898 124.478 368.05 123.978Z"/><path fill="#0451D9" d="M357.047 126.456C356.923 125.536 356.888 125.394 357.306 124.575C358.973 123.367 365.645 123.935 368.05 123.978C368.898 124.478 369.194 124.806 370.176 124.943L370.59 125.388C368.391 126.149 359.594 125.314 359.2 127.356C358.821 129.319 359.458 131.941 358.484 135.057C358.235 134.474 358.279 133.959 358.261 133.321C357.378 134.371 358.117 134.922 357.506 135.719C357.252 133.39 357.367 128.067 357.047 126.456Z"/><defs><linearGradient id="gradient_11" gradientUnits="userSpaceOnUse" x1="584.74225" y1="204.74207" x2="602.32697" y2="122.27251"><stop offset="0" stop-color="#020D5A"/><stop offset="1" stop-color="#0037A5"/></linearGradient></defs><path fill="url(#gradient_11)" d="M572.419 124.05C582.705 123.958 592.991 123.93 603.278 123.965C605.421 123.965 615.475 123.822 617.069 124.066C617.162 125.378 617.083 126.077 616.956 127.389C617.424 128.965 617.16 135.648 617.091 137.651C606.407 137.887 595.181 137.655 584.364 137.788C584.594 143.687 584.122 149.599 584.468 155.395C593.237 154.989 604.416 155.273 613.323 155.318C613.052 157.843 613.354 165.827 613.399 168.745C603.789 168.94 594.031 168.531 584.453 168.993C584.717 175.435 584.378 181.96 584.54 188.474C595.688 188.057 607.348 188.373 618.567 188.196C618.673 192.968 618.558 197.724 618.476 202.496C608.406 203.064 598.374 202.456 588.282 202.726C581.877 202.898 575.233 202.765 568.839 202.578C569.376 196.441 569.079 186.17 569.089 179.765C569.118 161.188 568.59 142.777 568.84 124.166L572.419 124.05Z"/><path fill="#0451D9" d="M572.419 124.05C582.705 123.958 592.991 123.93 603.278 123.965C605.421 123.965 615.475 123.822 617.069 124.066C617.162 125.378 617.083 126.077 616.956 127.389L616.531 127.458L616.484 126.655C615.399 125.671 614.439 125.108 613.026 124.862C608.115 124.008 574.831 125.779 572.419 124.05Z"/><defs><linearGradient id="gradient_12" gradientUnits="userSpaceOnUse" x1="440.51004" y1="201.47052" x2="453.39865" y2="122.54043"><stop offset="0" stop-color="#011265"/><stop offset="1" stop-color="#013AA7"/></linearGradient></defs><path fill="url(#gradient_12)" d="M435.732 125.707C438.114 124.963 441.546 123.829 443.856 123.306C448.114 122.341 458.451 122.147 462.456 123.688C471.4 126.437 471.902 127.063 479.102 133.237C477.532 135.348 471.335 143.41 469.56 144.074C467.446 143.597 464.944 140.963 463 139.921C448.001 131.882 431.663 141.886 428.193 157.473C426.639 164.403 427.901 171.667 431.702 177.667C438.821 188.726 454.561 192.922 465.158 184.862C466.952 183.499 468.358 182.401 470.038 180.885C472.608 183.852 476.931 188.815 479.629 191.559C472.171 199.098 466.328 202.445 455.426 203.023C441.902 203.74 432.501 201.092 422.257 191.465C415.099 184.738 410.941 173.421 410.89 163.408C410.9 160.591 411.133 157.778 411.587 154.997C412.404 151.954 412.958 148.138 414.625 145.513C414.684 145.313 414.751 145.114 414.827 144.92C418.252 136.042 427.308 129.455 435.732 125.707Z"/><defs><linearGradient id="gradient_13" gradientUnits="userSpaceOnUse" x1="421.9205" y1="135.06473" x2="426.98727" y2="138.7225"><stop offset="0" stop-color="#4B79E6"/><stop offset="1" stop-color="#144ABC"/></linearGradient></defs><path fill="url(#gradient_13)" d="M414.625 145.513C414.684 145.313 414.751 145.114 414.827 144.92C418.252 136.042 427.308 129.455 435.732 125.707L436.136 126.326C435.788 127.001 435.445 127.678 435.105 128.356C436.327 128.679 436.97 128.291 438.195 128.309C436.696 129.431 435.482 129.744 433.709 130.212C424.368 132.677 418.157 142.885 414.815 151.198C414.47 150.349 414.61 146.686 414.625 145.513Z"/><path fill="#0451D9" d="M435.732 125.707C438.114 124.963 441.546 123.829 443.856 123.306C448.114 122.341 458.451 122.147 462.456 123.688C458.48 125.59 449.141 119.922 437.527 127.232C439.764 127.229 443.118 126.259 444.723 126.468C442.633 127.354 440.44 127.972 438.195 128.309C436.97 128.291 436.327 128.679 435.105 128.356C435.445 127.678 435.788 127.001 436.136 126.326L435.732 125.707Z"/><path fill="#0451D9" d="M411.587 154.997C412.404 151.954 412.958 148.138 414.625 145.513C414.61 146.686 414.47 150.349 414.815 151.198C414.46 152.779 414.296 153.926 413.026 154.968C412.328 155.099 412.272 155.131 411.587 154.997Z"/><path fill="#35A503" d="M135.149 131.435C140.132 119.081 153.462 112.286 166.392 115.51C169.885 116.381 173.166 117.948 176.038 120.118C183.229 125.552 187.194 134.245 186.582 143.236C185.969 152.226 180.861 160.302 172.999 164.711C163.11 170.256 150.797 168.958 142.283 161.473C133.769 153.988 130.909 141.947 135.149 131.435Z"/><path fill="#4EB339" d="M135.149 131.435C140.132 119.081 153.462 112.286 166.392 115.51C164.483 118.631 163.666 116.694 162.467 118.046C163.553 120.197 165.682 120.78 164.459 124.626C163.825 126.617 162.301 127.579 160.845 129.08C155.936 133.26 146.669 135.97 140.276 136.067C140.843 135.393 141.012 135.038 141.426 134.257C140.314 133.56 140.175 133.367 139.346 132.351L138.446 133.959C138.734 133.001 138.985 132.52 138.581 131.588L137.956 131.449L137.041 132.128C136.646 131.784 135.694 131.589 135.149 131.435Z"/><path fill="#FAFDF8" d="M139.346 132.351C141.133 127.301 143.993 122.566 149.011 120.227C151.541 119.048 156.992 117.558 159.137 119.922C159.168 121.079 159.293 121.253 158.267 122.059C153.608 125.716 144.079 129.046 141.426 134.257C140.314 133.56 140.175 133.367 139.346 132.351Z"/><defs><linearGradient id="gradient_14" gradientUnits="userSpaceOnUse" x1="185.07745" y1="136.18121" x2="169.8485" y2="139.02617"><stop offset="0" stop-color="#005B00"/><stop offset="1" stop-color="#057504"/></linearGradient></defs><path fill="url(#gradient_14)" d="M166.392 115.51C169.885 116.381 173.166 117.948 176.038 120.118C183.229 125.552 187.194 134.245 186.582 143.236C185.969 152.226 180.861 160.302 172.999 164.711C173.98 163.217 174.017 163.58 173.826 162.089C171.929 160.828 170.066 162.858 167.722 162.828L167.852 162.345C171.309 162.072 172.833 160.02 175.882 158.864C174.903 160.32 173.935 161.125 174.59 162.79C175.39 162.46 178.599 159.769 178.737 159.047C178.076 158.294 177.584 157.86 176.848 157.206C176.564 155.968 177.665 154.771 178.038 152.948C179.606 149.734 181.143 147.836 181.548 144.084C181.922 140.774 180.988 137.449 178.945 134.817C178.739 134.643 178.743 134.685 178.644 134.485C176.895 130.968 173.38 128.828 170.981 125.806C170.97 125.793 170.211 123.81 170.07 123.496L169.622 123.542C169.597 123.693 169.57 123.844 169.54 123.994C169.241 125.495 167.913 125.953 166.512 126.874C164.016 129.081 163.983 128.367 160.845 129.08C162.301 127.579 163.825 126.617 164.459 124.626C165.682 120.78 163.553 120.197 162.467 118.046C163.666 116.694 164.483 118.631 166.392 115.51Z"/><path fill="#319724" d="M166.392 115.51C169.885 116.381 173.166 117.948 176.038 120.118L175.791 121.589C172.579 122.484 165.829 115.491 164.109 118.307C165.498 120.262 167.728 120.934 168.033 123.326C167.57 125.333 166.795 125.783 166.512 126.874C164.016 129.081 163.983 128.367 160.845 129.08C162.301 127.579 163.825 126.617 164.459 124.626C165.682 120.78 163.553 120.197 162.467 118.046C163.666 116.694 164.483 118.631 166.392 115.51Z"/><path fill="#077001" d="M137.041 132.128L137.956 131.449L138.581 131.588C138.985 132.52 138.734 133.001 138.446 133.959L139.346 132.351C140.175 133.367 140.314 133.56 141.426 134.257C141.012 135.038 140.843 135.393 140.276 136.067L140.163 136.539C140.301 136.588 140.438 136.64 140.574 136.693C141.758 137.157 142.723 137.656 143.225 138.807L142.863 139.182C142.07 138.863 141.636 138.699 140.808 138.491C138.204 140.236 139.881 145.281 137.42 147.146C132.416 145.736 135.548 135.386 137.041 132.128Z"/><path fill="#319724" d="M139.346 132.351C140.175 133.367 140.314 133.56 141.426 134.257C141.012 135.038 140.843 135.393 140.276 136.067L140.163 136.539L138.175 140.758C138.08 138.438 137.933 136.224 138.446 133.959L139.346 132.351Z"/><path fill="#077001" d="M178.945 134.817C180.988 137.449 181.922 140.774 181.548 144.084C181.143 147.836 179.606 149.734 178.038 152.948C176.452 153.473 174.176 157.865 172.695 158.891C171.843 159.481 170.041 160.195 169.047 160.603C172.749 156.871 173.769 154.105 176.389 149.638C176.257 149.862 176.542 145.97 176.594 145.582L176.743 145.656L177.184 150.228C177.191 149.217 177.233 148.207 177.311 147.199L177.625 147.32L178.227 149.22C178.867 148.678 180.552 144.446 180.453 143.383C180.172 140.362 178.918 138.052 178.943 134.979L178.945 134.817Z"/><defs><linearGradient id="gradient_15" gradientUnits="userSpaceOnUse" x1="202.74962" y1="182.25652" x2="158.60886" y2="123.77624"><stop offset="0" stop-color="#0D8900"/><stop offset="1" stop-color="#77D80F"/></linearGradient></defs><path fill="url(#gradient_15)" d="M201.734 112.681C201.256 103.437 199.88 94.8325 198.802 85.8033L199.076 85.8628C207.696 103.802 212.125 123.018 211.516 142.72C211.443 145.062 211.575 151.107 211.052 153.095C208.964 173.702 200.322 192.811 189.288 210.077C186.03 208.114 182.913 205.927 179.633 204.013C168.157 197.317 155.588 192.495 142.912 188.617C141.544 188.198 141.029 188.193 139.776 187.306C138.927 187.289 138.814 187.233 138.038 186.879C138.915 186.287 141.483 185.977 142.663 185.77C145.594 184.954 149.953 183.772 152.877 183.403L153.387 184.654L153.079 185.479C170.355 183.53 188.244 169.591 195.384 154.267C198.856 146.815 205.245 128.413 202.71 120.563L202.642 120.001L203.188 119.537C202.495 117.161 202.637 114.705 201.734 112.681Z"/><defs><linearGradient id="gradient_16" gradientUnits="userSpaceOnUse" x1="193.61531" y1="206.94626" x2="185.61298" y2="185.90276"><stop offset="0" stop-color="#015E00"/><stop offset="1" stop-color="#008200"/></linearGradient></defs><path fill="url(#gradient_16)" d="M139.776 187.306C144.576 187.407 157.921 193.098 163.182 194.905C165 195.53 168.141 198.012 170.314 198.053C172.211 196.361 176.996 196.429 179.809 195.804C188.501 193.872 196.727 188.283 201.641 180.854C202.453 179.627 204.195 180.025 204.502 178.453C205.309 176.94 205.599 174.397 206.233 172.977C208.048 168.916 208.932 156.068 211.052 153.095C208.964 173.702 200.322 192.811 189.288 210.077C186.03 208.114 182.913 205.927 179.633 204.013C168.157 197.317 155.588 192.495 142.912 188.617C141.544 188.198 141.029 188.193 139.776 187.306Z"/><path fill="#4EB339" d="M142.663 185.77C145.594 184.954 149.953 183.772 152.877 183.403L153.387 184.654L153.079 185.479C151.658 187.697 144.79 186.999 142.663 185.77Z"/><defs><linearGradient id="gradient_17" gradientUnits="userSpaceOnUse" x1="142.71936" y1="38.902035" x2="150.32033" y2="67.179672"><stop offset="0" stop-color="#0152F5"/><stop offset="1" stop-color="#00037D"/></linearGradient></defs><path fill="url(#gradient_17)" d="M123.27 36.1207C127.49 26.3515 137.83 20.716 148.331 22.4609C148.789 22.5369 149.244 22.6266 149.695 22.7299C153.776 23.6624 157.528 25.683 160.551 28.5767C169.024 36.6859 170.094 49.8468 163.042 59.2168C155.989 68.5868 143.042 71.2068 132.898 65.3164C122.755 59.4261 118.619 46.8856 123.27 36.1207Z"/><defs><linearGradient id="gradient_18" gradientUnits="userSpaceOnUse" x1="139.74544" y1="27.664547" x2="147.27568" y2="45.98473"><stop offset="0" stop-color="#079EFF"/><stop offset="1" stop-color="#0052F2"/></linearGradient></defs><path fill="url(#gradient_18)" d="M123.27 36.1207C127.49 26.3515 137.83 20.716 148.331 22.4609C148.789 22.5369 149.244 22.6266 149.695 22.7299C153.776 23.6624 157.528 25.683 160.551 28.5767C160.564 30.2467 163.829 32.7337 163.31 33.5001C158.226 41.0098 152.413 46.2924 143.009 47.119C137.624 47.5962 131.704 46.0031 126.221 45.1084C125.701 44.1735 125.915 43.9528 126.29 42.6612C126.427 42.2017 126.569 41.7439 126.716 41.2878L126.064 41.1189L125.378 41.242C124.745 40.5071 125.023 39.8652 125.065 38.6256C124.533 37.6077 123.992 37.0047 123.27 36.1207Z"/><path fill="#42BBFF" d="M123.27 36.1207C127.49 26.3515 137.83 20.716 148.331 22.4609C146.609 24.3354 144.694 26.7844 143.171 28.4553C140.556 31.3247 132.833 35.4379 128.986 35.9334L128.864 36.4892C128.016 37.9653 127.051 39.7648 126.064 41.1189L125.378 41.242C124.745 40.5071 125.023 39.8652 125.065 38.6256C124.533 37.6077 123.992 37.0047 123.27 36.1207Z"/><path fill="#FAFDF8" d="M125.065 38.6256C126.42 34.3128 125.194 34.7175 128.75 30.2284C131.166 27.1788 138.703 21.8831 142.075 24.8049C141.968 25.4291 141.879 25.874 141.229 26.2019C135.668 29.0076 133.085 31.1564 128.986 35.9334L128.864 36.4892C128.016 37.9653 127.051 39.7648 126.064 41.1189L125.378 41.242C124.745 40.5071 125.023 39.8652 125.065 38.6256Z"/><path fill="#07A7FF" d="M148.331 22.4609C148.789 22.5369 149.244 22.6266 149.695 22.7299C145.872 26.4391 154.14 35.3114 136.908 36.0981C138.653 37.2144 140.849 35.9989 142.673 37.3057C139.23 37.5352 136.647 36.8652 133.29 36.4971C132.123 36.3692 130.196 36.5449 128.864 36.4892L128.986 35.9334C132.833 35.4379 140.556 31.3247 143.171 28.4553C144.694 26.7844 146.609 24.3354 148.331 22.4609Z"/><defs><linearGradient id="gradient_19" gradientUnits="userSpaceOnUse" x1="113.50487" y1="296.18646" x2="118.56588" y2="305.18356"><stop offset="0" stop-color="#0057E0"/><stop offset="1" stop-color="#007EF9"/></linearGradient></defs><path fill="url(#gradient_19)" d="M108.648 310.471C101.17 312.205 90.5708 316.96 82.1454 315.754L81.8916 315.4C100.946 308.766 120.375 297.153 134.131 282.315C134.07 283.762 133.254 284.578 132.411 285.713C132.779 285.423 132.869 285.386 133.172 285.039C133.866 285.257 143.314 282.174 145.828 284.37C146.792 287.406 141.927 287.56 142.264 290.334C143.144 289.534 144.043 288.756 144.961 288.001L145.167 287.906C147.853 286.635 150.31 284.365 153.541 286.035C156.56 287.595 158.003 285.819 160.155 286.95L160.172 287.483C158.169 289.451 155.415 289.842 154.625 291.987C151.832 293.595 151.639 294.998 148.849 296.945C146.219 298.78 140.741 299.997 139.104 301.303C132.349 304.518 128.287 306.696 120.935 308.829C116.455 310.129 111.89 310.845 107.67 312.061L107.145 311.711C107.685 311.211 108.058 310.911 108.648 310.471Z"/><path fill="#94E682" d="M144.961 288.001L145.167 287.906C147.853 286.635 150.31 284.365 153.541 286.035C156.56 287.595 158.003 285.819 160.155 286.95L160.172 287.483C158.169 289.451 155.415 289.842 154.625 291.987C151.832 293.595 151.639 294.998 148.849 296.945C146.219 298.78 140.741 299.997 139.104 301.303C132.349 304.518 128.287 306.696 120.935 308.829C116.455 310.129 111.89 310.845 107.67 312.061L107.145 311.711C107.685 311.211 108.058 310.911 108.648 310.471C109.581 309.446 121.741 304.488 124.703 302.756C131.243 298.932 136.728 295.875 142.264 290.334C143.144 289.534 144.043 288.756 144.961 288.001Z"/><path fill="#001B77" d="M584.899 223.196C586.552 223.257 588.307 223.203 589.969 223.181C589.982 231.567 590.219 241.489 589.844 249.742C588.185 249.987 586.429 249.773 584.748 249.645C583.064 247.161 581.281 244.519 579.449 242.154C576.555 238.417 573.451 235.357 571.128 231.209C571.059 237.475 570.954 243.438 571.003 249.734L565.841 249.927C565.806 245.147 566.111 226.938 565.41 223.315C566.946 223.26 568.747 223.307 570.306 223.307C572.884 224.928 582.822 238.193 585.201 241.386C585.268 238.189 584.828 235.057 584.818 231.839C584.808 228.831 585.124 226.205 584.899 223.196Z"/><path fill="#001B77" d="M526.158 227.182C526.098 225.921 525.947 224.616 526.328 223.424C529.978 223.096 540.735 223.132 544.94 223.313C545.188 223.323 545.377 224.253 545.497 224.655C545.298 225.638 545.074 226.615 544.826 227.586C540.688 227.934 536.017 227.491 532.086 227.972C531.437 229.13 531.777 232.486 531.827 234.065C532.996 234.315 541.569 234.211 543.234 234.208C543.111 235.582 543.12 237.109 543.098 238.499C540.036 238.738 534.75 238.73 531.629 238.682C531.676 241.076 531.655 243.472 531.566 245.866C535.976 244.985 540.851 245.341 545.377 245.453L545.452 249.766C539.04 249.813 532.627 249.8 526.214 249.726C526.03 242.535 526.057 234.38 526.158 227.182Z"/><path fill="#022192" d="M526.158 227.182C526.098 225.921 525.947 224.616 526.328 223.424C529.978 223.096 540.735 223.132 544.94 223.313C545.188 223.323 545.377 224.253 545.497 224.655C545.298 225.638 545.074 226.615 544.826 227.586C540.688 227.934 536.017 227.491 532.086 227.972L532.102 227.381C531.265 227.708 530.855 227.929 529.946 227.977C529.639 227.577 529.47 227.299 529.214 226.876C529.271 226.055 530.011 224.736 530.84 224.653C534.884 224.247 540.058 225.26 544.011 224.494L544.357 223.967L544.142 223.687C540.061 224.462 532.432 222.915 527.979 223.733C526.22 224.056 527.71 225.501 526.158 227.182Z"/><path fill="#001B77" d="M661.281 223.302C665.702 223.147 670.225 223.21 674.655 223.219C674.658 224.423 674.82 226.508 674.253 227.466C673.72 227.646 673.566 227.756 673.033 227.573C669.096 227.688 665.158 227.75 661.219 227.759C661.222 229.959 661.187 232.154 661.375 234.344C663.817 234.189 670.468 233.52 672.405 234.539C672.678 235.313 672.695 235.372 672.734 236.187C672.6 236.867 672.55 237.94 671.995 238.107C669.219 238.942 664.047 238.389 661.128 238.384C661.173 240.613 661.163 243.358 661.389 245.531C665.115 245.097 671.044 245.252 674.955 245.303L675.001 249.631C668.603 249.86 662.228 249.613 655.85 249.682C655.884 248.342 655.869 245.936 656.001 244.686C655.797 240.774 655.724 238.38 655.942 234.423C655.746 233.693 655.932 228.625 655.957 227.524C656.003 226.115 655.834 224.633 655.709 223.222L661.281 223.302Z"/><path fill="#022192" d="M661.281 223.302C665.702 223.147 670.225 223.21 674.655 223.219C674.658 224.423 674.82 226.508 674.253 227.466C673.72 227.646 673.566 227.756 673.033 227.573C670.409 227.003 661.923 225.993 659.693 227.677C657.685 229.192 658.24 231.048 657.07 232.779C656.357 233.835 656.898 236.134 656.466 236.289L656.508 235.601C655.972 235.044 656.139 235.256 655.942 234.423C655.746 233.693 655.932 228.625 655.957 227.524C656.003 226.115 655.834 224.633 655.709 223.222L661.281 223.302Z"/><path fill="#0451D9" d="M655.709 223.222L661.281 223.302C660.042 223.53 658.221 223.493 657.538 224.077L657.469 224.871C658.63 224.935 659.739 224.854 660.899 224.793C658.205 225.944 658.076 227.961 656.437 228.961L655.957 227.524C656.003 226.115 655.834 224.633 655.709 223.222Z"/><path fill="#022192" d="M367.017 223.322L367.151 227.805C362.706 227.604 357.479 227.726 353.044 227.884L353.182 234.395C356.629 234.142 361.981 234.257 365.566 234.239C365.348 235.477 365.278 237.431 365.192 238.737C361.144 238.742 357.088 238.782 353.044 238.603C353.022 241.015 353.099 243.548 353.135 245.97C356.747 246.035 364.258 245.718 367.351 246.178C367.744 247.019 367.562 248.399 367.516 249.4C366.225 250.611 352.185 249.909 348.715 250.232C348.627 247.238 348.431 224.411 348.937 223.414C354.963 223.312 360.99 223.282 367.017 223.322Z"/><path fill="#001B77" d="M453.666 232.963C455.88 222.247 471.821 219.313 478.394 227.264C477.452 228.216 476.306 229.753 475.446 230.837C470.548 227.233 470.166 227.551 464.213 227.633C458.195 232.799 456.398 235.746 460.668 243.286C468.411 247.67 468.219 246.426 475.721 242.785C476.825 243.798 478.042 244.871 479.108 245.905C473.651 249.836 470.635 250.853 463.851 250.026C455.632 249.025 451.39 240.294 453.666 232.963Z"/><path fill="#022192" d="M453.666 232.963C455.88 222.247 471.821 219.313 478.394 227.264C477.452 228.216 476.306 229.753 475.446 230.837C470.548 227.233 470.166 227.551 464.213 227.633L463.424 227.326C462.393 227.988 461.672 227.251 459.814 228.313C457.97 229.368 455.286 233.322 453.992 233.68L453.666 232.963Z"/><path fill="#001B77" d="M622.877 223.006C628.423 222.465 632.046 223.478 636.32 227.059C634.536 228.56 634.547 229.684 632.388 230.196C631.186 229.931 630.271 228.842 629.367 227.964C626.41 227.402 624.274 226.968 621.379 228.233C619.16 229.216 617.424 231.041 616.553 233.305C615.697 235.479 615.785 237.911 616.795 240.019C618.626 243.852 621.964 245.026 625.625 246.325C626.843 245.831 628.256 245.078 629.452 244.481C630.558 243.868 631.797 243.268 632.933 242.69C634.787 243.695 636.073 244.181 635.571 246.499C632.1 251.111 621.44 251.258 616.801 248.084C613.757 246.01 611.695 242.781 611.096 239.148C609.636 230.634 614.476 224.401 622.877 223.006Z"/><path fill="#022192" d="M308.076 223.159C311.567 223.69 323.473 223.377 327.365 223.194L327.253 227.753L313.515 227.729C313.645 230.497 313.78 232.714 313.563 235.47C315.675 235.511 323.636 235.278 324.989 235.543L325.712 237.448L325.255 238.457C324.088 239.373 315.629 239.053 313.683 239.093C313.636 242.769 313.566 246.407 313.689 250.083C311.908 250.124 310.045 250.226 308.257 250.301C307.873 241.87 307.988 231.674 308.076 223.159Z"/><path fill="#FE8015" d="M147.444 80.3307L149.204 81.6152C137.119 91.0099 127.851 100.599 119.265 113.299C118.001 115.168 115.242 118.689 114.728 120.689C113.807 122.052 112.948 122.776 113.063 124.162C113.49 124.704 114.072 125.311 114.209 125.959C113.268 127.131 109.336 132.957 108.762 133.17L108.17 132.609C107.09 134.505 108.428 134.621 107.03 136.866C104.844 140.378 103.333 146.829 101.172 150.049C100.113 150.483 100.528 150.478 99.5649 150.204C107.779 123.447 124.322 96.5554 147.444 80.3307Z"/><path fill="#022192" d="M245.272 223.494L245.73 223.471C246.255 224.508 245.981 243.313 246.059 246.122C248.909 246.036 257.485 245.06 259.125 247.39C259.311 248.43 259.188 248.595 258.705 249.553C257.691 250.171 256.435 250.04 255.213 250.056C250.486 250.052 245.76 250.099 241.034 250.199L240.986 223.434C242.694 223.609 243.546 223.58 245.272 223.494Z"/><path fill="#022192" d="M426.154 239.365C421.869 238.511 416.912 237.811 414.975 233.222C414.26 231.572 414.248 229.702 414.943 228.042C417.312 222.333 425.71 222.149 430.529 224.263C431.599 224.733 432.67 225.2 433.732 225.689C432.814 227.844 432.087 228.636 430.45 230.259C429.741 229.408 428.97 228.411 427.9 228.016C425.413 227.098 420.612 227.009 419.486 230C420.057 234.244 428.68 234.139 432.478 238.002C429.792 239.529 428.522 238.09 426.154 239.365Z"/><path fill="#001B77" d="M498.814 223.282C500.627 223.317 502.25 223.331 504.071 223.271C504.415 231.688 504.028 241.076 504.092 249.664C502.826 249.827 500.051 249.791 498.669 249.812C499.013 243.94 498.696 237.739 498.733 231.842C498.746 229.835 498.461 225.06 498.814 223.282Z"/><path fill="#022192" d="M280.036 223.281C281.731 223.413 283.42 223.283 285.119 223.197C285.114 231.559 285.163 240.057 285.182 248.429C285.185 249.544 285.045 249.489 284.387 250.089C282.836 250.129 281.483 250.024 279.946 249.917C280.563 244.552 280.043 229.385 280.036 223.281Z"/><path fill="#001B77" d="M432.478 238.002C433.944 239.287 434.166 240.436 434.282 242.43C434.388 244.205 433.772 245.948 432.573 247.263C429.27 250.921 416.433 252.102 413.733 246.626C413.506 246.166 415.427 243.597 415.861 243.007C420.063 245.447 425.739 249.105 429.001 243.289C429.195 242.942 429.386 242.593 429.572 242.241C428.577 241.395 427.164 240.112 426.154 239.365C428.522 238.09 429.792 239.529 432.478 238.002Z"/><path fill="#4585F6" fill-opacity="0.98823529" d="M32.3716 137.497C36.2543 123.918 43.9836 107.599 56.1902 99.698C56.6043 99.9269 57.2026 100.228 57.5554 100.507C53.4799 104.3 45.0604 116.742 42.764 122.134C39.4527 125.018 35.8285 136.17 34.9083 140.328L34.639 140.035C34.2626 137.807 38.2941 128.101 39.5135 125.868C40.5772 123.92 42.1975 121.663 43.2866 119.374L43.0663 119.216L42.5015 119.885L41.4516 119.931L41.13 119.39C41.3619 118.271 41.5026 117.93 41.9295 116.893C38.7065 119.007 32.4006 139.958 32.5271 139.833L32.3716 137.497Z"/><path fill="#0451D9" fill-opacity="0.98823529" d="M228.536 142.065C228.567 140.922 230.057 137.594 230.587 136.411C233.182 130.614 238.218 127.072 243.996 124.879C254.979 120.71 265.879 121.35 276.526 126.071C272.804 126.279 264.395 121.212 259.635 123.067C257.251 123.996 254.695 124.341 252.175 124.7C253.537 125.442 255.265 124.963 255.846 125.523C253.694 127.044 246.903 126.909 245.002 127.491C239.884 129.06 232.097 133.386 231.016 139.116C230.547 141.604 231.402 145.091 230.172 147.007L229.71 146.848C229.436 145.172 229.397 144.387 229.378 142.68L229.128 142.506C228.917 143.767 228.909 144.36 228.897 145.639L228.415 145.015L228.477 144.742C228.74 143.535 228.714 143.277 228.536 142.065Z"/><path fill="#4EB339" fill-opacity="0.97647059" d="M152.877 183.403C153.264 183.329 153.649 183.242 154.03 183.144C158.825 181.892 162.968 179.644 166.997 177.735C186.291 168.596 195.023 150.197 200.438 130.723C200.471 130.671 200.503 130.62 200.536 130.569C200.855 136.197 198.339 140.622 196.596 145.609C190.56 162.881 177.497 175.595 160.598 182.306C157.879 183.386 156.431 184.165 153.387 184.654L152.877 183.403Z"/><path fill="#FF9720" fill-opacity="0.15294118" d="M173.67 68.2298C175.581 68.0305 178.722 65.9346 180.891 66.5414C178.112 67.4941 162.826 73.6199 161.503 75.3296C158.247 76.5414 154.772 79.2924 151.923 81.3245C140.666 89.3517 131.524 98.6589 122.952 109.466C121.077 111.829 116.624 119.39 114.728 120.689C115.242 118.689 118.001 115.168 119.265 113.299C127.851 100.599 137.119 91.0099 149.204 81.6152C154.564 78.6183 159.308 74.4163 165.189 72.1178C167.973 71.0299 171.152 69.7855 173.67 68.2298Z"/><defs><linearGradient id="gradient_20" gradientUnits="userSpaceOnUse" x1="83.582016" y1="95.396011" x2="83.500778" y2="86.669121"><stop offset="0" stop-color="#2D77DD" stop-opacity="0.97647059"/><stop offset="1" stop-color="#3F90FF" stop-opacity="0.98431373"/></linearGradient></defs><path fill="url(#gradient_20)" d="M61.7469 95.6646C66.0557 92.2659 79.0062 87.3431 84.429 86.6376C89.8346 85.9344 101.001 85.8081 106.392 86.7752L105.866 87.8741C105 88.14 94.8638 88.7818 94.0504 88.5516C90.9061 87.8385 82.9616 88.3713 79.7113 89.5801C73.1869 91.0821 69.2405 93.0777 63.2721 96.1115L61.7469 95.6646Z"/><path fill="#FF9720" d="M147.444 80.3307C154.335 75.4587 164.467 69.0899 172.707 67.0476L173.554 67.4968L173.67 68.2298C171.152 69.7855 167.973 71.0299 165.189 72.1178C159.308 74.4163 154.564 78.6183 149.204 81.6152L147.444 80.3307Z"/><path fill="#4EB339" fill-opacity="0.98823529" d="M201.734 112.681C202.637 114.705 202.495 117.161 203.188 119.537L202.642 120.001L202.71 120.563C202.338 122.723 201.395 128.924 200.536 130.569C199.719 124.143 201.887 119.143 201.734 112.681Z"/><path fill="#4585F6" fill-opacity="0.34509805" d="M79.7113 89.5801C82.9616 88.3713 90.9061 87.8385 94.0504 88.5516C90.6095 89.0458 87.5278 89.6199 84.2327 90.7731C83.5351 91.0172 81.6967 91.6888 81.0779 91.772C80.9817 91.3857 80.7689 91.235 80.4856 90.907L80.8286 89.839L79.7113 89.5801Z"/><path fill="#FE8015" d="M172.707 67.0476C174.907 65.6421 179.98 64.4251 182.671 63.66C181.572 65.5594 181.907 64.5032 179.966 65.6636C180.681 66.0984 180.734 65.956 180.891 66.5414C178.722 65.9346 175.581 68.0305 173.67 68.2298L173.554 67.4968L172.707 67.0476Z"/><path fill="#4585F6" fill-opacity="0.97647059" d="M61.7469 95.6646L63.2721 96.1115C61.4786 97.5315 59.1196 99.0381 57.5554 100.507C57.2026 100.228 56.6043 99.9269 56.1902 99.698C57.0645 98.3773 60.313 96.5455 61.7469 95.6646Z"/></svg>