<svg width="260" height="57" viewBox="0 0 260 57" fill="none" xmlns="http://www.w3.org/2000/svg">
<g clip-path="url(#clip0_1169_1854)">
<path d="M4.37727 12.4425C2.8035 20.8524 4.32809 29.6065 8.60678 37.0327C12.8855 44.4589 19.7215 50.1147 27.7871 53.0163C35.8527 50.1639 42.6887 44.5081 46.9674 37.0327C51.2461 29.6065 52.7707 20.8524 51.1969 12.4425C51.1478 12.1475 50.0166 11.4589 49.7707 11.3114C43.3281 6.39336 35.2133 3.59008 27.0986 3.78681C20.8035 3.98353 14.6068 5.75402 9.19694 8.95074C7.62317 9.88517 6.19694 10.918 4.81989 12.0983C4.67235 12.1966 4.52481 12.3442 4.37727 12.4425Z" fill="white"/>
<path d="M4.37727 12.4425C2.8035 20.8524 4.32809 29.6065 8.60678 37.0327C12.8855 44.4589 19.7215 50.1147 27.7871 53.0163C35.8527 50.1639 42.6887 44.5081 46.9674 37.0327C51.2461 29.6065 52.7707 20.8524 51.1969 12.4425C50.9019 12.1475 50.0166 11.4589 49.7707 11.3114C43.3281 6.39336 35.2133 3.59008 27.0986 3.78681C20.8035 3.98353 14.6068 5.75402 9.19694 8.95074C7.62317 9.88517 6.19694 10.918 4.81989 12.0983C4.67235 12.1966 4.52481 12.3442 4.37727 12.4425Z" fill="white"/>
<path d="M26.5084 56.5082C17.6068 53.3607 10.0822 47.0656 5.31172 38.9016C0.590408 30.6885 -1.08172 21.0492 0.688769 11.7541L0.934671 10.4262L1.96746 9.54098C2.115 9.39344 2.31172 9.2459 2.45926 9.14754C4.13139 7.77049 5.75434 6.63934 7.32811 5.65574C13.2298 2.16393 20.0658 0.196721 27.0002 0C27.3445 0 27.6888 0 27.9839 0C36.5412 0 45.0494 2.95082 52.033 8.31148C52.9183 9.04918 53.4101 9.44262 53.7052 9.7377L54.5904 10.5738L54.7871 11.7541C56.5084 21.0492 54.8363 30.6885 50.115 38.9016C45.3937 47.1148 37.8691 53.3607 28.9183 56.5082L27.6396 56.9508L26.3609 56.5082H26.5084Z" fill="white"/>
<path d="M27.7869 54.0493H27.5902C19.2295 51.0493 12.1967 45.246 7.72131 37.5738C3.29508 29.8525 1.77049 20.8525 3.44262 12.1476V11.9509C3.44262 11.9509 12.541 2.85254 27.7869 2.85254C43.0328 2.85254 52.082 11.9509 52.082 11.9509V12.1476C53.8033 20.8525 52.2787 29.8525 47.8525 37.5247C43.4262 45.1968 36.3934 51.0493 27.9836 53.9509H27.7869V54.0493ZM4.62294 12.5902C3.09835 20.9509 4.57376 29.5575 8.80327 36.9345C13.0328 44.3116 19.7705 49.9181 27.7869 52.7214C35.8033 49.8689 42.541 44.2624 46.7705 36.9345C51 29.5575 52.5246 20.9509 50.9508 12.5902C50.459 12.1476 41.6557 4.03287 27.7869 4.03287C13.918 4.03287 4.96721 12.2952 4.62294 12.5902Z" fill="#AE1E55"/>
<mask id="mask0_1169_1854" style="mask-type:luminance" maskUnits="userSpaceOnUse" x="6" y="6" width="43" height="44">
<path d="M48.4918 14.0165C49.6722 21.4427 48.2459 29.0657 44.459 35.6066C40.6722 42.1476 34.7705 47.164 27.7869 49.9181C20.7541 47.2132 14.9017 42.1476 11.1148 35.6066C7.32789 29.0657 5.90166 21.4427 7.08199 14.0165C7.08199 14.0165 15.0984 6.73779 27.7869 6.73779C40.4754 6.73779 48.4918 14.0165 48.4918 14.0165Z" fill="white"/>
</mask>
<g mask="url(#mask0_1169_1854)">
<path d="M27.7868 26.9509H4.57373V51.0001H27.7868V26.9509Z" fill="#748A96"/>
<path d="M27.7868 2.26245H4.57373V28.328H27.7868V2.26245Z" fill="#AE1E55"/>
<path d="M50.9997 2.16406H27.7866V29.8526H50.9997V2.16406Z" fill="#748A96"/>
<path d="M50.9997 28.3279H27.7866V51.4918H50.9997V28.3279Z" fill="#AE1E55"/>
</g>
<path d="M27.7869 19.2787C29.7542 19.2787 31.3771 17.6558 31.3771 15.6886C31.3771 13.7213 29.7542 12.0984 27.7869 12.0984C25.8197 12.0984 24.1968 13.7213 24.1968 15.6886C24.1968 17.6558 25.8197 19.2787 27.7869 19.2787Z" fill="white"/>
<path d="M40.5246 24.2952C39.8361 24.3443 39.1475 24.2952 38.459 24.0001C37.7705 23.7542 37.1803 23.3115 36.7377 22.8197L28.1803 49.5247L29.8525 19.9673C29.2131 20.2624 28.5246 20.4591 27.7869 20.4591C27.0492 20.4591 26.3607 20.2624 25.7213 19.9673L27.3443 49.5738L18.7869 22.8197C18.2951 23.3115 17.7049 23.7542 17.0656 24.0001C16.377 24.246 15.6885 24.3443 15 24.2952L26.2623 49.2296C26.7541 49.4755 27.2951 49.6722 27.8361 49.8689C28.3279 49.6722 28.8197 49.4755 29.3115 49.2296L40.5738 24.246L40.5246 24.2952Z" fill="white"/>
<path d="M16.623 22.9181C18.4919 22.1804 19.3771 20.1148 18.6886 18.2952C18.0001 16.4263 15.8853 15.5411 14.0657 16.2296C12.1968 16.9673 11.3116 19.0329 12.0001 20.8525C12.7378 22.7214 14.8034 23.6066 16.623 22.9181Z" fill="white"/>
<path d="M41.4591 16.1804C39.5902 15.4427 37.5247 16.3771 36.8361 18.246C36.0984 20.1148 37.0329 22.1804 38.9017 22.8689C40.7706 23.6066 42.8361 22.6722 43.5247 20.8033C44.2132 18.9345 43.328 16.8689 41.4591 16.1804Z" fill="white"/>
<path d="M96.9344 38.2131H96.836C96.836 38.2131 95.4098 37.8197 93.4426 35.5082L89.3114 29.9508C92.0655 29.5574 93.7868 27.6885 93.7868 25.1312C93.7868 22.5738 91.1311 20.6558 87.3442 20.6558H80.8032V21H80.9016C82.0327 21.4426 81.9835 22.9672 81.9835 24.1476C81.9835 24.2951 81.9835 24.4426 81.9835 24.541V34.623C81.9835 34.7705 81.9835 34.8689 81.9835 35.0164C81.9835 36.1476 81.9835 37.7213 80.9016 38.1148H80.8032V38.5082H86.2131V38.164H86.1147C84.9836 37.7213 84.9835 36.1476 85.0327 34.9672V22.7705C85.6721 22.6722 86.2131 22.623 86.7049 22.5738C88.4262 22.5246 90.5409 23.2131 90.5409 25.3771C90.5409 27.541 87.9344 29.0164 85.5245 29.0164H85.2295L91.1311 37.082C91.9672 38.0656 92.8524 38.459 94.377 38.459H96.9835V38.0656L96.9344 38.2131Z" fill="#AE1E55"/>
<path d="M114.738 36.3934C116.803 36.4918 118.279 35.8033 119.803 34.5246H120.246L118.672 38.6066H106.623V38.2623C108.197 37.7213 108 35.7049 108 34.3279V22.7705C108 21.3443 108.197 19.4754 106.623 18.8853V18.4426H112.476V18.8853C110.902 19.4754 111.098 21.3934 111.098 22.7705V36.1475L114.738 36.4426V36.3934Z" fill="#AE1E55"/>
<path d="M97.918 21.0492H98.0163C99.1475 21.4918 99.0983 23.0164 99.0983 24.1967C99.0983 24.3443 99.0983 24.4918 99.0983 24.5902V34.6722C99.0983 34.7705 99.0983 34.9181 99.0983 35.0164C99.0983 36.1967 99.0983 37.7705 98.0163 38.164H97.918V38.5574H103.328V38.2131H103.229C102.147 37.7705 102.147 36.1476 102.147 35.0164C102.147 34.9181 102.147 34.7705 102.147 34.6722V24.5902C102.147 24.4918 102.147 24.3443 102.147 24.2459C102.147 23.0656 102.147 21.4918 103.229 21.0492H103.328V20.6558H97.918V21V21.0492Z" fill="#AE1E55"/>
<path d="M121.131 21.0492H121.23C122.361 21.4918 122.312 23.0164 122.312 24.1967C122.312 24.3443 122.312 24.4918 122.312 24.5902V34.6722C122.312 34.7705 122.312 34.9181 122.312 35.0164C122.312 36.1967 122.312 37.7705 121.23 38.164H121.131V38.5574H126.541V38.2131H126.443C125.312 37.7705 125.361 36.1967 125.361 35.0164C125.361 34.9181 125.361 34.7705 125.361 34.6722V24.5902C125.361 24.4918 125.361 24.3443 125.361 24.2459C125.361 23.0656 125.361 21.4918 126.443 21.0492H126.541V20.6558H121.131V21V21.0492Z" fill="#AE1E55"/>
<path d="M141.885 20.6064C141.639 20.754 141.295 20.754 140.951 20.7048C140.852 20.7048 140.803 20.7048 140.705 20.7048H130.18V21.049H130.279C131.41 21.4917 131.41 23.1146 131.361 24.2458V34.672V35.0162C131.361 36.1966 131.36 37.7703 130.279 38.1638H130.18V38.5572H135.541V38.213H135.442C134.36 37.7703 134.41 36.2949 134.41 35.1146C134.41 34.9671 134.41 34.8195 134.41 34.672V29.9999H138.344C139.131 29.9999 139.967 30.049 140.262 30.6392V30.7376H140.656V27.59H140.36C140.065 27.7376 139.672 27.7376 139.279 27.7376H134.41V23.0654C135.295 22.9179 137.656 22.9179 138.787 22.9179C139.918 22.9179 141 23.0163 141.836 23.9015C141.836 23.9507 142.131 23.9507 142.131 23.9507V20.5081H141.836L141.885 20.6064Z" fill="#AE1E55"/>
<path d="M157.869 34.7705C156.639 35.9017 154.574 36.3935 153.098 36.3935C151.623 36.3935 152.705 36.3935 152.508 36.3935L149.262 36.0984V30.0492H153.049C153.934 30.0492 154.77 30.0984 155.115 30.7377V30.8361H155.508V27.6885H155.213C154.918 27.8361 154.525 27.8361 154.131 27.8361H149.311V23.164C150.197 23.0164 152.557 23.0164 153.688 23.0164C154.82 23.0164 155.902 23.1148 156.738 24.0492C156.738 24.0984 157.033 24.0984 157.033 24.0984V20.6558H156.738C156.492 20.8033 156.147 20.8033 155.803 20.8033C155.705 20.8033 155.656 20.8033 155.557 20.8033H145.033V21.1476H145.131C146.262 21.5902 146.262 23.2131 146.213 24.3443V34.7705V35.1148C146.213 36.2951 146.213 37.8689 145.131 38.2623H145.033V38.6558H156.984L158.311 34.8197H157.967L157.869 34.7705Z" fill="#AE1E55"/>
<path d="M77.8524 18.1966H77.7541C77.4098 18.3442 76.9672 18.3442 76.5737 18.3934H63.9344C63.5409 18.3442 63.1475 18.3442 62.7541 18.1966H62.6557L61.5737 21.836H62.0164C62.9508 20.9507 63.9836 20.6065 65.3114 20.6065H68.6557V32.1639V34.5737C68.6557 36.3442 68.6557 37.2786 67.0819 38.213V38.5573H73.4262V38.213C71.8032 37.2786 71.8524 36.3442 71.8524 34.5737V20.5573H75.1967C76.5245 20.5573 77.5573 20.9016 78.4918 21.7868H78.9344L77.8524 18.1475V18.1966Z" fill="#AE1E55"/>
<path d="M232.574 26.8523C233.508 26.8523 234.344 27.1473 234.885 27.6391H235.18L234.393 24.9834H234.197C234.049 25.0818 233.852 25.0818 233.705 25.0818C233.607 25.0818 233.557 25.0818 233.508 25.0818H225.295C225.197 25.0818 225.148 25.0818 225.049 25.0818C224.852 25.0818 224.705 25.0818 224.557 24.9834H224.361L223.574 27.59H223.869C224.41 27.049 225.197 26.8031 226.18 26.8031H228.246V35.8523C228.246 36.7375 228.246 37.9178 227.459 38.2129H227.361V38.508H231.59V38.2621H231.541C230.557 37.6719 230.557 36.9342 230.557 35.8523V26.8031H232.623L232.574 26.8523Z" fill="#748A96"/>
<path d="M172.328 25.426H172.426C173.262 25.7703 173.262 26.9015 173.213 27.7867C173.213 27.8851 173.213 27.9834 173.213 28.0818V30.4424H166.23V28.0818C166.23 27.9834 166.23 27.8851 166.23 27.7867C166.23 26.9015 166.23 25.7211 167.016 25.426H167.115V25.131H163.082V25.426H163.18C164.016 25.7703 164.016 26.9506 163.967 27.7867C163.967 27.8851 163.967 27.9834 163.967 28.0818V35.9015C163.967 36.7867 163.967 37.967 163.18 38.2621H163.082V38.5572H167.115V38.2621H167.016C166.18 37.9179 166.23 36.7375 166.23 35.8523C166.23 35.7539 166.23 35.6556 166.23 35.6064V32.1146H173.213V35.6064C173.213 35.7047 173.213 35.8031 173.213 35.9015C173.213 36.7375 173.213 37.9179 172.426 38.2129H172.328V38.508H176.41V38.2129H176.312C175.475 37.8687 175.475 36.6883 175.475 35.8031V27.9834V27.7375C175.475 26.8523 175.475 25.672 176.312 25.3769H176.41V25.0818H172.328V25.3769V25.426Z" fill="#748A96"/>
<path d="M185.852 24.836C181.623 24.7376 178.229 27.9343 178.229 31.8687C178.229 35.8032 181.426 38.9507 185.656 38.9507C189.885 38.9507 193.131 35.8032 193.131 31.7704C193.131 27.7376 189.934 24.836 185.902 24.836H185.852ZM185.705 37.2294C182.607 37.2294 180.689 34.3278 180.689 31.672C180.689 29.0163 182.705 26.5081 185.656 26.5081C188.607 26.5081 190.574 29.4097 190.574 32.1146C190.574 34.8196 188.557 37.1802 185.705 37.1802V37.2294Z" fill="#748A96"/>
<path d="M200.459 30.7868C198.934 30.0982 197.459 29.4097 197.459 28.2294C197.459 27.0491 198.787 26.5572 199.918 26.5572C201.049 26.5572 202.229 27.0491 202.967 27.7868L203.164 27.9835V25.3277H203.066C202.131 24.9835 201.098 24.8359 200.066 24.8359C197.705 24.8359 194.902 25.7704 194.902 28.4261C194.902 31.0818 196.967 31.7212 198.836 32.5572C200.361 33.2458 201.787 33.8851 201.787 35.2622C201.787 36.6392 200.213 37.2294 199.033 37.2294C197.852 37.2294 195.934 36.6392 194.754 35.6064L194.459 35.3605L195.148 38.3113H195.197C196.279 38.754 197.508 38.9507 198.836 38.9507C201.885 38.9507 204.344 37.0327 204.344 34.672C204.344 32.3113 202.279 31.672 200.459 30.8359V30.7868Z" fill="#748A96"/>
<path d="M211.23 25.1803H206.263V25.4262H206.361C207.197 25.7704 207.197 26.9508 207.148 27.836V35.6557V35.9016C207.148 36.7868 207.148 37.9672 206.312 38.2623H206.213V38.5573H210.443V38.3114H210.394C209.41 37.7213 209.41 36.9836 209.41 35.9016V26.9016C209.853 26.8524 210.246 26.8032 210.689 26.8032C211.722 26.8032 213.394 27.0983 213.394 29.1639C213.394 31.2295 211.672 32.0164 209.951 32.1147H209.508L209.853 32.3114C209.853 32.3606 209.951 32.459 209.951 32.459C210.394 32.6557 210.935 32.6557 211.476 32.6557C213.689 32.6557 216 31.1803 216 28.7704C216 26.3606 214.131 25.1311 211.279 25.1311L211.23 25.1803Z" fill="#748A96"/>
<path d="M217.869 25.4262H217.968C218.804 25.7704 218.804 26.9016 218.754 27.7868C218.754 27.8852 218.754 27.9836 218.754 28.0819V35.9016C218.754 36.7868 218.754 37.9672 217.968 38.2623H217.869V38.5573H221.902V38.2623H221.804C220.968 37.918 220.967 36.7377 221.017 35.8524C221.017 35.7541 221.017 35.6557 221.017 35.6065V27.7868C221.017 26.9016 221.017 25.7213 221.804 25.4262H221.902V25.1311H217.869V25.4262Z" fill="#748A96"/>
<path d="M246.098 35.8031L241.77 25.1802H238.377V25.4753H238.475C238.721 25.5736 238.869 25.672 238.967 25.8687C239.115 26.1638 238.967 26.7048 238.77 27.0982L235.377 35.5572L235.279 35.8523C234.885 36.8851 234.541 37.8195 233.508 38.3605H233.459V38.6556H237.393V38.3605H237.295C236.459 38.0162 236.557 37.5736 236.951 36.4425L237.984 33.6884H242.852L243.984 36.6884C244.426 37.8687 244.475 37.9671 243.688 38.3605H243.639V38.6556H247.967V38.4097H247.918C246.934 37.8687 246.541 36.8851 246.148 35.9015L246.098 35.8031ZM242.164 31.9179H238.574L240.393 27.3441L242.164 31.9179Z" fill="#748A96"/>
<path d="M258.836 35.7048C257.902 36.5408 256.82 36.9343 255.689 36.9343C254.557 36.9343 255.492 36.9343 255.393 36.9343L252.393 36.7376V28.131C252.393 28.0326 252.393 27.9343 252.393 27.8359C252.393 26.9998 252.393 25.8195 253.18 25.4753H253.279V25.1802H249.197V25.4753H249.295C250.131 25.8195 250.131 26.9998 250.131 27.8851V35.7048V35.9507C250.131 36.8359 250.131 38.0162 249.295 38.3113H249.197V38.6064H258.049L259.18 35.7048H258.885H258.836Z" fill="#748A96"/>
<path d="M102.147 47.459H103.426C104.459 47.459 105.492 47.6065 105.492 48.8852C105.492 50.1639 105 49.9672 104.41 50.1147C104.656 50.2131 104.754 50.3606 104.951 50.6557L105.934 52.7705H105.049L104.213 50.9508C103.967 50.4098 103.721 50.4098 103.328 50.4098H102.885V52.7705H102.147V47.459ZM102.885 49.7705H103.525C104.262 49.7705 104.656 49.4262 104.656 48.9344C104.656 48.4426 104.311 48.1475 103.574 48.1475H102.836V49.7705H102.885Z" fill="#231F20"/>
<path d="M108.098 47.459H111.049V48.1475H108.836V49.7213H110.852V50.4098H108.836V52.1803H111.049V52.8688H108.098V47.5573V47.459Z" fill="#231F20"/>
<path d="M116.065 48.2458C115.672 48.0982 115.475 48.049 115.082 48.049C114.688 48.049 114.147 48.1966 114.147 48.7376C114.147 49.7704 116.41 49.5244 116.41 51.2458C116.41 52.9671 115.524 52.8195 114.492 52.8195C113.459 52.8195 113.754 52.7212 113.41 52.6228L113.508 51.9343C113.754 52.0326 114.246 52.1802 114.59 52.1802C114.934 52.1802 115.623 51.9343 115.623 51.2949C115.623 50.1146 113.36 50.4097 113.36 48.7867C113.36 47.1638 114.098 47.3605 115.082 47.3605C116.065 47.3605 115.869 47.4097 116.213 47.5572L116.114 48.2458H116.065Z" fill="#231F20"/>
<path d="M118.623 47.4588H120C121.082 47.4588 121.967 47.8523 121.967 49.0326C121.967 50.2129 121.033 50.6064 120.098 50.6064H119.361V52.7211H118.623V47.4097V47.4588ZM119.361 49.967H120.098C120.59 49.967 121.18 49.7211 121.18 49.0326C121.18 48.3441 120.492 48.0982 120 48.0982H119.361V49.967Z" fill="#231F20"/>
<path d="M126.393 47.3606C128.016 47.3606 128.951 48.5409 128.951 50.1147C128.951 51.6885 128.016 52.8688 126.393 52.8688C124.77 52.8688 123.836 51.7376 123.836 50.1147C123.836 48.4917 124.77 47.3606 126.393 47.3606ZM126.393 52.1803C127.623 52.1803 128.164 51.1475 128.164 50.1147C128.164 49.0819 127.574 48.0491 126.393 48.0491C125.213 48.0491 124.623 49.0327 124.623 50.1147C124.623 51.1967 125.164 52.1803 126.393 52.1803Z" fill="#231F20"/>
<path d="M131.213 47.459H132.246L134.606 51.7377V47.459H135.344V52.7705H134.36L131.951 48.3934V52.7705H131.213V47.459Z" fill="#231F20"/>
<path d="M140.361 48.2458C139.967 48.0982 139.771 48.049 139.377 48.049C138.984 48.049 138.443 48.1966 138.443 48.7376C138.443 49.7704 140.705 49.5244 140.705 51.2458C140.705 52.9671 139.82 52.8195 138.787 52.8195C137.754 52.8195 138.049 52.7212 137.705 52.6228L137.803 51.9343C138.049 52.0326 138.541 52.1802 138.885 52.1802C139.23 52.1802 139.918 51.9343 139.918 51.2949C139.918 50.1146 137.656 50.4097 137.656 48.7867C137.656 47.1638 138.393 47.3605 139.377 47.3605C140.361 47.3605 140.164 47.4097 140.508 47.5572L140.41 48.2458H140.361Z" fill="#231F20"/>
<path d="M143.115 47.459H143.852V52.7705H143.115V47.459Z" fill="#231F20"/>
<path d="M146.41 47.459H147.836C148.918 47.459 149.705 47.8032 149.705 48.7869C149.705 49.7705 149.262 49.8688 148.623 50.0655C149.36 50.1639 149.852 50.6065 149.852 51.3442C149.852 52.4754 148.918 52.7705 147.836 52.7705H146.41V47.459ZM147.147 49.7213H147.541C148.279 49.7213 148.918 49.6721 148.918 48.8852C148.918 48.0983 148.377 48.0983 147.934 48.0983H147.147V49.7213ZM147.147 52.1311H147.738C148.426 52.1311 149.016 51.9836 149.016 51.2459C149.016 50.5082 148.279 50.3114 147.639 50.3114H147.147V52.0819V52.1311Z" fill="#231F20"/>
<path d="M152.311 47.459H153.049V52.0819H155.262V52.7705H152.262V47.459H152.311Z" fill="#231F20"/>
<path d="M157.377 47.459H160.328V48.1475H158.115V49.7213H160.131V50.4098H158.115V52.1803H160.328V52.8688H157.377V47.5573V47.459Z" fill="#231F20"/>
<path d="M168.148 47.459H168.984L170.262 51.9836L171.394 47.459H172.476L173.607 51.9836L174.885 47.459H175.672L174.049 52.7705H173.066L171.885 48.1475L170.705 52.7705H169.672L168.049 47.459H168.148Z" fill="#231F20"/>
<path d="M177.688 47.459H180.639V48.1475H178.426V49.7213H180.443V50.4098H178.426V52.1803H180.639V52.8688H177.688V47.5573V47.459Z" fill="#231F20"/>
<path d="M183.049 47.459H183.787V52.0819H186V52.7705H183V47.459H183.049Z" fill="#231F20"/>
<path d="M188.065 47.459H188.803V52.0819H191.016V52.7705H188.016V47.459H188.065Z" fill="#231F20"/>
<path d="M193.082 47.459H194.508C195.59 47.459 196.377 47.8032 196.377 48.7869C196.377 49.7705 195.934 49.8688 195.295 50.0655C196.033 50.1639 196.525 50.6065 196.525 51.3442C196.525 52.4754 195.59 52.7705 194.508 52.7705H193.082V47.459ZM193.82 49.7213H194.262C195 49.7213 195.639 49.6721 195.639 48.8852C195.639 48.0983 195.098 48.0983 194.656 48.0983H193.869V49.7213H193.82ZM193.82 52.1311H194.41C195.098 52.1311 195.689 51.9836 195.689 51.2459C195.689 50.5082 194.951 50.3114 194.312 50.3114H193.82V52.0819V52.1311Z" fill="#231F20"/>
<path d="M199.033 47.459H201.984V48.1475H199.77V49.7213H201.787V50.4098H199.77V52.1803H201.984V52.8688H199.033V47.5573V47.459Z" fill="#231F20"/>
<path d="M204.394 47.459H205.131V52.7705H204.394V47.459Z" fill="#231F20"/>
<path d="M207.738 47.459H208.771L211.131 51.7377V47.459H211.869V52.7705H210.885L208.475 48.3934V52.7705H207.738V47.459Z" fill="#231F20"/>
<path d="M218.459 48.3934C218.065 48.1475 217.672 48.0491 216.983 48.0491C215.754 48.0491 214.967 48.9344 214.967 50.1147C214.967 51.295 215.852 52.1803 216.983 52.1803C218.114 52.1803 217.623 52.1311 217.819 52.0819V50.459H216.688V49.8196H218.557V52.5737C218.262 52.6721 217.77 52.8196 216.934 52.8196C215.262 52.8196 214.131 51.7376 214.131 50.0655C214.131 48.3934 215.311 47.3606 216.934 47.3606C218.557 47.3606 218.065 47.459 218.508 47.6065V48.3934H218.459Z" fill="#231F20"/>
<path d="M256.18 14.7048C256.672 14.7048 257.164 14.8524 257.606 15.0983C258.098 15.3442 258.442 15.7376 258.688 16.1802C258.934 16.672 259.082 17.1639 259.082 17.6557C259.082 18.1475 258.934 18.6393 258.688 19.1311C258.442 19.6229 258.049 19.9671 257.606 20.213C257.164 20.4589 256.672 20.6065 256.131 20.6065C255.59 20.6065 255.147 20.4589 254.656 20.213C254.164 19.9671 253.82 19.5737 253.574 19.1311C253.328 18.6393 253.18 18.1966 253.18 17.6557C253.18 17.1147 253.328 16.672 253.574 16.1802C253.82 15.6884 254.213 15.3442 254.656 15.0983C255.147 14.8524 255.59 14.7048 256.082 14.7048H256.18ZM256.18 15.1966C255.787 15.1966 255.344 15.295 254.951 15.4917C254.557 15.6884 254.262 15.9835 254.016 16.4261C253.77 16.8196 253.672 17.213 253.672 17.6557C253.672 18.0983 253.77 18.4917 254.016 18.8852C254.213 19.2786 254.557 19.5737 254.951 19.8196C255.344 20.0163 255.738 20.1639 256.18 20.1639C256.623 20.1639 257.016 20.0655 257.41 19.8196C257.803 19.6229 258.098 19.2786 258.344 18.8852C258.541 18.4917 258.688 18.0983 258.688 17.6557C258.688 17.213 258.59 16.8196 258.344 16.4261C258.147 16.0327 257.803 15.7376 257.41 15.4917C257.016 15.295 256.623 15.1966 256.18 15.1966ZM255 19.2294V16.1311H256.082C256.426 16.1311 256.721 16.1311 256.869 16.2294C257.016 16.2786 257.164 16.377 257.262 16.5245C257.36 16.672 257.41 16.8196 257.41 16.9671C257.41 17.1147 257.311 17.4098 257.164 17.5573C257.016 17.7048 256.77 17.8032 256.524 17.8524C256.623 17.8524 256.721 17.9507 256.77 17.9999C256.918 18.0983 257.065 18.3442 257.213 18.6393L257.606 19.2294H257.016L256.721 18.7376C256.524 18.3442 256.328 18.0983 256.18 17.9999C256.082 17.9507 255.934 17.9016 255.787 17.9016H255.492V19.2294H255ZM255.492 17.5081H256.082C256.377 17.5081 256.574 17.5081 256.672 17.3606C256.77 17.2622 256.82 17.1638 256.82 17.0163C256.82 16.8688 256.82 16.8196 256.721 16.7704C256.672 16.7212 256.623 16.6229 256.524 16.6229C256.426 16.6229 256.279 16.5737 256.033 16.5737H255.442V17.5081H255.492Z" fill="#231F20"/>
</g>
<defs>
<clipPath id="clip0_1169_1854">
<rect width="259.131" height="57" fill="white"/>
</clipPath>
</defs>
</svg>
